<svg width="95" height="36" viewBox="0 0 95 36" fill="none" xmlns="http://www.w3.org/2000/svg">
<path d="M67.3869 23.8308V19.0862H87.4278C88.0894 19.0862 88.6597 18.8618 89.1387 18.4132C89.6178 17.9645 89.8573 17.4149 89.8573 16.7643C89.8573 16.1138 89.6178 15.5529 89.1387 15.0818C88.6597 14.6107 88.0894 14.3752 87.4278 14.3752H73.9118C72.9081 14.3752 71.9728 14.1957 71.1059 13.8368C70.2391 13.4554 69.4863 12.9507 68.8475 12.3225C68.2088 11.6944 67.6955 10.9541 67.3077 10.1016C66.9427 9.24917 66.7603 8.32941 66.7603 7.34234C66.7603 6.37771 66.9427 5.46917 67.3077 4.6167C67.6955 3.7418 68.2088 2.99029 68.8475 2.36216C69.4863 1.71159 70.2391 1.20684 71.1059 0.847912C71.9728 0.466546 72.9081 0.275864 73.9118 0.275864L94.1427 0.406905V5.05059L73.9118 4.91955C73.2502 4.91955 72.6799 5.1551 72.2009 5.6262C71.7447 6.0973 71.5165 6.65813 71.5165 7.30869C71.5165 7.95926 71.7447 8.52009 72.2009 8.99119C72.6799 9.43985 73.2502 9.66419 73.9118 9.66419H87.3594C88.3403 9.66419 89.2756 9.85487 90.1652 10.2362C91.0549 10.6176 91.8191 11.1336 92.4578 11.7841C93.1194 12.4123 93.644 13.1638 94.0318 14.0387C94.4196 14.9136 94.6135 15.8333 94.6135 16.798C94.6135 17.785 94.4196 18.7048 94.0318 19.5573C93.6669 20.4097 93.1536 21.15 92.492 21.7782C91.8533 22.4063 91.0891 22.911 90.1995 23.2924C89.3326 23.6513 88.4087 23.8308 87.4278 23.8308H67.3869Z" fill="#242527"/>
<path d="M54.5971 0.275864C55.7998 0.275867 56.9231 0.502421 57.9669 0.955561C59.0335 1.4087 59.9525 2.03179 60.724 2.82478C61.5183 3.59512 62.1423 4.51277 62.5962 5.57765C63.05 6.61987 63.2769 7.74142 63.2769 8.94224C63.2769 9.98445 63.1068 10.9701 62.7664 11.899C62.426 12.8053 61.9495 13.6322 61.3368 14.3799C60.7241 15.1049 59.9978 15.728 59.1582 16.2491C58.3413 16.7476 57.445 17.0988 56.4692 17.3027L63.3575 23.8308H56.3795L45.2364 12.8505H54.5971C55.1417 12.8505 55.6523 12.7486 56.1288 12.5447C56.6281 12.3408 57.0592 12.0689 57.4223 11.729C57.7853 11.3665 58.069 10.9473 58.2733 10.4715C58.4775 9.99574 58.5796 9.48598 58.5796 8.94224C58.5796 8.39848 58.4775 7.88866 58.2733 7.41287C58.069 6.91442 57.7853 6.48389 57.4223 6.12137C57.0592 5.75887 56.6281 5.47562 56.1288 5.2717C55.6523 5.06779 55.1417 4.96585 54.5971 4.96585H40.4471L40.4595 23.8308H35.4456L35.4331 0.275864H54.5971Z" fill="#242527"/>
<path d="M0.601053 33.031V27.5669H1.20211V32.4924H4.45716V33.031H0.601053ZM14.1527 33.1169C13.7572 33.1169 13.3878 33.0466 13.0443 32.9061C12.706 32.7604 12.4068 32.5601 12.1466 32.3051C11.8916 32.0449 11.6913 31.7456 11.5456 31.4074C11.4051 31.0639 11.3348 30.6944 11.3348 30.2989C11.3348 29.9034 11.4051 29.5366 11.5456 29.1983C11.6913 28.8549 11.8916 28.5556 12.1466 28.3006C12.4068 28.0404 12.706 27.8401 13.0443 27.6996C13.3878 27.5539 13.7572 27.481 14.1527 27.481C14.543 27.481 14.9073 27.5539 15.2456 27.6996C15.589 27.8401 15.8882 28.0404 16.1432 28.3006C16.4034 28.5556 16.6038 28.8549 16.7443 29.1983C16.89 29.5366 16.9629 29.9034 16.9629 30.2989C16.9629 30.6944 16.89 31.0639 16.7443 31.4074C16.6038 31.7456 16.4034 32.0449 16.1432 32.3051C15.8882 32.5601 15.589 32.7604 15.2456 32.9061C14.9073 33.0466 14.543 33.1169 14.1527 33.1169ZM14.1527 32.5627C14.465 32.5627 14.7538 32.5054 15.0192 32.3909C15.2846 32.2764 15.5162 32.1177 15.7139 31.9148C15.9169 31.7066 16.073 31.4646 16.1823 31.1888C16.2967 30.913 16.354 30.6164 16.354 30.2989C16.354 29.9763 16.2967 29.6797 16.1823 29.4091C16.073 29.1333 15.9169 28.8939 15.7139 28.6909C15.5162 28.4828 15.2846 28.3215 15.0192 28.207C14.7538 28.0925 14.465 28.0352 14.1527 28.0352C13.8405 28.0352 13.5491 28.0925 13.2785 28.207C13.0131 28.3215 12.7789 28.4828 12.5759 28.6909C12.3782 28.8939 12.2221 29.1333 12.1076 29.4091C11.9983 29.6797 11.9437 29.9763 11.9437 30.2989C11.9437 30.6164 11.9983 30.913 12.1076 31.1888C12.2221 31.4646 12.3782 31.7066 12.5759 31.9148C12.7789 32.1177 13.0131 32.2764 13.2785 32.3909C13.5491 32.5054 13.8405 32.5627 14.1527 32.5627ZM27.2634 33.1169C26.8679 33.1169 26.4985 33.044 26.155 32.8983C25.8168 32.7526 25.5175 32.5522 25.2573 32.2973C25.0023 32.0371 24.802 31.7378 24.6563 31.3996C24.5106 31.0561 24.4377 30.6892 24.4377 30.2989C24.4377 29.9087 24.508 29.5444 24.6485 29.2061C24.7942 28.8627 24.9945 28.5634 25.2495 28.3084C25.5097 28.0483 25.8089 27.8453 26.1472 27.6996C26.4907 27.5539 26.8601 27.481 27.2556 27.481C27.6772 27.481 28.0753 27.5591 28.4499 27.7152C28.8246 27.8713 29.1447 28.0925 29.4101 28.3787L29.0042 28.7924C28.796 28.553 28.5358 28.3683 28.2236 28.2382C27.9165 28.1029 27.5939 28.0352 27.2556 28.0352C26.9434 28.0352 26.652 28.0925 26.3814 28.207C26.116 28.3215 25.8818 28.4828 25.6788 28.6909C25.4811 28.8939 25.325 29.1333 25.2105 29.4091C25.1012 29.6797 25.0466 29.9763 25.0466 30.2989C25.0466 30.6164 25.1012 30.913 25.2105 31.1888C25.325 31.4646 25.4811 31.7066 25.6788 31.9148C25.8818 32.1177 26.116 32.2764 26.3814 32.3909C26.652 32.5054 26.9434 32.5627 27.2556 32.5627C27.6251 32.5627 27.9582 32.482 28.2548 32.3207C28.5566 32.1593 28.7986 31.9382 28.9807 31.6572C29.1681 31.3762 29.2774 31.0587 29.3086 30.7049H27.3493V30.1741H29.9174V30.416C29.9174 30.7959 29.8498 31.1498 29.7145 31.4776C29.5792 31.8055 29.3918 32.0917 29.1525 32.3363C28.9131 32.5809 28.6321 32.7734 28.3094 32.9139C27.9868 33.0492 27.6381 33.1169 27.2634 33.1169ZM37.6381 33.031V27.5669H38.2392V33.031H37.6381ZM48.0078 33.1091C47.5759 33.1091 47.1622 33.0232 46.7667 32.8515C46.3712 32.6745 46.0225 32.4221 45.7207 32.0943L46.1188 31.6806C46.3998 31.9824 46.699 32.2088 47.0165 32.3597C47.3391 32.5106 47.6774 32.5861 48.0312 32.5861C48.3174 32.5861 48.5698 32.5418 48.7884 32.4534C49.0122 32.3597 49.1865 32.2322 49.3114 32.0709C49.4363 31.9044 49.4987 31.717 49.4987 31.5089C49.4987 31.2278 49.3999 31.0119 49.2021 30.861C49.0096 30.7101 48.6895 30.5982 48.242 30.5253L47.4536 30.4004C46.928 30.312 46.5403 30.1558 46.2905 29.9321C46.0407 29.7083 45.9158 29.4039 45.9158 29.0188C45.9158 28.717 45.9965 28.4516 46.1578 28.2226C46.3191 27.9936 46.5429 27.8167 46.8291 27.6918C47.1205 27.5617 47.4562 27.4966 47.8361 27.4966C48.2212 27.4966 48.5985 27.5591 48.9679 27.684C49.3426 27.8089 49.6835 27.9884 49.9905 28.2226L49.647 28.6909C49.0486 28.2382 48.4371 28.0118 47.8127 28.0118C47.5525 28.0118 47.3235 28.0535 47.1258 28.1367C46.928 28.2148 46.7745 28.3267 46.6652 28.4724C46.5559 28.6129 46.5013 28.7794 46.5013 28.9719C46.5013 29.2269 46.5871 29.4221 46.7589 29.5574C46.9306 29.6927 47.2142 29.7916 47.6097 29.854L48.3903 29.9789C48.9888 30.0778 49.4233 30.2469 49.6939 30.4863C49.9645 30.7205 50.0998 31.0509 50.0998 31.4776C50.0998 31.7951 50.0113 32.0787 49.8344 32.3285C49.6575 32.5731 49.4103 32.7656 49.0928 32.9061C48.7806 33.0414 48.4189 33.1091 48.0078 33.1091ZM59.0997 33.031V28.1055H57.1248V27.5669H61.6756V28.1055H59.7007V33.031H59.0997ZM69.2019 33.031V27.5669H69.803V33.031H69.2019ZM80.3756 33.1169C79.9801 33.1169 79.6107 33.0466 79.2672 32.9061C78.9237 32.7604 78.6219 32.5601 78.3617 32.3051C78.1015 32.0449 77.8986 31.7456 77.7529 31.4074C77.6124 31.0639 77.5421 30.6944 77.5421 30.2989C77.5421 29.9034 77.6124 29.5366 77.7529 29.1983C77.8986 28.8549 78.1015 28.5556 78.3617 28.3006C78.6219 28.0404 78.9237 27.8401 79.2672 27.6996C79.6107 27.5539 79.9801 27.481 80.3756 27.481C80.6618 27.481 80.9351 27.5175 81.1953 27.5903C81.4607 27.658 81.7052 27.7594 81.929 27.8947C82.158 28.0248 82.3609 28.1862 82.5379 28.3787L82.1398 28.8002C81.9264 28.5556 81.6636 28.3683 81.3514 28.2382C81.0391 28.1029 80.7139 28.0352 80.3756 28.0352C80.0582 28.0352 79.7642 28.0925 79.4936 28.207C79.223 28.3215 78.9862 28.4828 78.7832 28.6909C78.5855 28.8939 78.4294 29.1333 78.3149 29.4091C78.2056 29.6797 78.151 29.9763 78.151 30.2989C78.151 30.6164 78.2056 30.913 78.3149 31.1888C78.4294 31.4646 78.5881 31.7066 78.791 31.9148C78.994 32.1177 79.2308 32.2764 79.5014 32.3909C79.7772 32.5054 80.0738 32.5627 80.3912 32.5627C80.7295 32.5627 81.0521 32.4976 81.3592 32.3675C81.6662 32.2322 81.9238 32.0475 82.132 31.8133L82.5223 32.2192C82.3401 32.4065 82.1346 32.5679 81.9056 32.7032C81.6818 32.8385 81.4398 32.9425 81.1796 33.0154C80.9194 33.083 80.6514 33.1169 80.3756 33.1169ZM92.0723 33.1091C91.6404 33.1091 91.2267 33.0232 90.8312 32.8515C90.4357 32.6745 90.087 32.4221 89.7852 32.0943L90.1833 31.6806C90.4643 31.9824 90.7635 32.2088 91.081 32.3597C91.4036 32.5106 91.7419 32.5861 92.0957 32.5861C92.382 32.5861 92.6343 32.5418 92.8529 32.4534C93.0767 32.3597 93.251 32.2322 93.3759 32.0709C93.5008 31.9044 93.5632 31.717 93.5632 31.5089C93.5632 31.2278 93.4644 31.0119 93.2666 30.861C93.0741 30.7101 92.754 30.5982 92.3065 30.5253L91.5181 30.4004C90.9925 30.312 90.6048 30.1558 90.355 29.9321C90.1052 29.7083 89.9803 29.4039 89.9803 29.0188C89.9803 28.717 90.061 28.4516 90.2223 28.2226C90.3836 27.9936 90.6074 27.8167 90.8936 27.6918C91.1851 27.5617 91.5207 27.4966 91.9006 27.4966C92.2857 27.4966 92.663 27.5591 93.0324 27.684C93.4071 27.8089 93.748 27.9884 94.055 28.2226L93.7116 28.6909C93.1131 28.2382 92.5016 28.0118 91.8772 28.0118C91.617 28.0118 91.388 28.0535 91.1903 28.1367C90.9925 28.2148 90.839 28.3267 90.7297 28.4724C90.6204 28.6129 90.5658 28.7794 90.5658 28.9719C90.5658 29.2269 90.6517 29.4221 90.8234 29.5574C90.9951 29.6927 91.2787 29.7916 91.6742 29.854L92.4548 29.9789C93.0533 30.0778 93.4878 30.2469 93.7584 30.4863C94.029 30.7205 94.1643 31.0509 94.1643 31.4776C94.1643 31.7951 94.0758 32.0787 93.8989 32.3285C93.722 32.5731 93.4748 32.7656 93.1573 32.9061C92.8451 33.0414 92.4834 33.1091 92.0723 33.1091Z" fill="#242527"/>
<path d="M32.0175 23.8308L32.0175 9.14554L17.22 9.14554L32.0175 23.8308Z" fill="#EE1C4D"/>
<path d="M14.3578 18.6144H16.7537C18.4574 18.6144 20.0892 17.9279 21.2807 16.7101L22.083 15.89L25.8401 19.5658L25.0378 20.3857C22.8576 22.6142 19.8713 23.8705 16.7537 23.8705H14.3578V18.6144Z" fill="#EE1C4D"/>
<path fill-rule="evenodd" clip-rule="evenodd" d="M14.358 18.6144V23.8705H11.9355C5.34385 23.8705 0.000265528 18.5269 0.000244141 11.9352C0.000244141 5.34359 5.34385 0 11.9355 0H32.016V5.25611H11.9355C8.2467 5.25611 5.25635 8.24646 5.25635 11.9352C5.25637 15.624 8.24672 18.6144 11.9355 18.6144H14.358Z" fill="#242527"/>
</svg>
